<svg width="17" height="17" viewBox="0 0 17 17" fill="none" xmlns="http://www.w3.org/2000/svg">
<path d="M3.86747 13.0971V11.0288C3.86747 10.3417 4.40581 9.72548 5.17081 9.72548C5.85789 9.72548 6.47414 10.2638 6.47414 11.0288V13.0192C6.47414 14.4005 5.32664 15.548 3.94539 15.548C2.56414 15.548 1.41664 14.3934 1.41664 13.0192V8.6559C1.33872 4.67507 4.48372 1.45215 8.46456 1.45215C12.4454 1.45215 15.5833 4.67506 15.5833 8.57798V12.9413C15.5833 14.3226 14.4358 15.4701 13.0546 15.4701C11.6733 15.4701 10.5258 14.3226 10.5258 12.9413V10.9509C10.5258 10.2638 11.0641 9.64756 11.8291 9.64756C12.5162 9.64756 13.1325 10.1859 13.1325 10.9509V13.0971" stroke="white" stroke-width="1.5" stroke-linecap="round" stroke-linejoin="round"/>
</svg>
